<svg id="Layer_1" enable-background="new 0 0 512 512" height="512" viewBox="0 0 512 512" width="512" xmlns="http://www.w3.org/2000/svg"><g><path d="m354 512h-196c-25.364 0-46-20.636-46-46v-356c0-25.364 20.636-46 46-46h196c25.364 0 46 20.636 46 46v356c0 25.364-20.636 46-46 46zm-196-416c-7.72 0-14 6.28-14 14v356c0 7.72 6.28 14 14 14h196c7.72 0 14-6.28 14-14v-356c0-7.72-6.28-14-14-14z"/><path d="m320 96h-128c-8.837 0-16-7.164-16-16v-44c0-19.851 16.149-36 36-36h88c19.851 0 36 16.149 36 36v44c0 8.836-7.163 16-16 16zm-112-32h96v-28c0-2.206-1.794-4-4-4h-88c-2.206 0-4 1.794-4 4z"/><path d="m320 456h-128c-8.837 0-16-7.164-16-16s7.163-16 16-16h128c8.837 0 16 7.164 16 16s-7.163 16-16 16z"/><path d="m320 392h-128c-8.837 0-16-7.164-16-16s7.163-16 16-16h128c8.837 0 16 7.164 16 16s-7.163 16-16 16z"/><path d="m320 328h-128c-8.837 0-16-7.164-16-16s7.163-16 16-16h128c8.837 0 16 7.164 16 16s-7.163 16-16 16z"/></g></svg>