<?xml version="1.0" encoding="iso-8859-1"?>
<!-- Generator: Adobe Illustrator 19.0.0, SVG Export Plug-In . SVG Version: 6.00 Build 0)  -->
<svg version="1.1" id="Capa_1" xmlns="http://www.w3.org/2000/svg" xmlns:xlink="http://www.w3.org/1999/xlink" x="0px" y="0px"
	 viewBox="0 0 480 480" style="enable-background:new 0 0 480 480;" xml:space="preserve">
<g>
	<g>
		<path d="M319.92,176c0.098-3.756-2.506-7.043-6.184-7.808c-48.573-10.72-98.899-10.72-147.472,0
			c-2.292,0.503-4.245,1.994-5.336,4.072c-0.584,1.157-0.875,2.44-0.848,3.736H160v216.096h0.056
			c-0.093,3.762,2.522,7.05,6.208,7.808c48.573,10.72,98.899,10.72,147.472,0c3.686-0.758,6.301-4.046,6.208-7.808H320V176H319.92z
			 M301.024,181.896L274.584,248h-69.168l-26.4-66.104C219.325,174.237,260.715,174.237,301.024,181.896z M272,264v72h-64v-72H272z
			 M176,217.544l16,40V288h-16V217.544z M176,304h16v37.6l-16,24V304z M181.248,386.624L204.288,352h71.424l23.04,34.624
			C259.905,393.72,220.095,393.72,181.248,386.624z M304,365.6l-16-24V304h16V365.6z M304,288h-16v-30.456l16-40V288z"/>
	</g>
</g>
<g>
	<g>
		<path d="M461.656,266.344L355.312,160l26.344-26.344l-11.312-11.312L352,140.688V89.944C352,40.269,311.731,0,262.056,0h-44.112
			C168.269,0,128,40.269,128,89.944v50.744l-18.344-18.344l-11.312,11.312L124.688,160L18.344,266.344
			c-3.123,3.124-3.123,8.188,0,11.312l24,24c3.124,3.123,8.188,3.123,11.312,0L128,227.312v65.376l-85.656,85.656
			c-3.123,3.124-3.123,8.188,0,11.312l24,24c3.124,3.123,8.188,3.123,11.312,0L128,363.312v54.928
			c0.04,34.093,27.667,61.72,61.76,61.76h100.48c34.093-0.04,61.72-27.667,61.76-61.76v-54.928l42.344,42.344
			c3.124,3.123,8.188,3.123,11.312,0l24-24c3.123-3.124,3.123-8.188,0-11.312L352,292.688v-65.376l74.344,74.344
			c3.124,3.123,8.188,3.123,11.312,0l24-24C464.779,274.532,464.779,269.468,461.656,266.344z M128,340.688l-56,56L59.312,384
			L128,315.312V340.688z M128,204.688l-80,80L35.312,272L128,179.312V204.688z M330.656,62.328
			c-20.205-5.004-35.98-20.779-40.984-40.984C308.338,28.864,323.136,43.662,330.656,62.328z M165.656,37.656
			c7.126-7.13,15.637-12.725,25.008-16.44c-2.156,9.885-7.072,18.956-14.176,26.16c-7.409,7.577-16.858,12.84-27.2,15.152
			C152.996,53.211,158.566,44.747,165.656,37.656z M144,89.944c0.024-3.502,0.291-6.999,0.8-10.464
			c7.992-0.907,15.775-3.148,23.024-6.632L144,123.944V89.944z M336,418.24c-0.031,25.26-20.5,45.729-45.76,45.76H189.76
			c-25.26-0.031-45.729-20.5-45.76-45.76V161.776l55.248-118.4c4.546-8.203,7.376-17.245,8.32-26.576
			c3.444-0.51,6.919-0.777,10.4-0.8h44.088c3.529,0.016,7.053,0.284,10.544,0.8c1.141,9.327,4.113,18.336,8.744,26.512L336,161.76
			V418.24z M336,123.6l-23.544-50.976c7.139,3.51,14.816,5.801,22.712,6.776c0.527,3.49,0.805,7.014,0.832,10.544V123.6z
			 M412.688,376L400,388.688l-48-48v-25.376L412.688,376z M432,284.688l-80-80v-25.376L444.688,272L432,284.688z"/>
	</g>
</g>
<g>
</g>
<g>
</g>
<g>
</g>
<g>
</g>
<g>
</g>
<g>
</g>
<g>
</g>
<g>
</g>
<g>
</g>
<g>
</g>
<g>
</g>
<g>
</g>
<g>
</g>
<g>
</g>
<g>
</g>
</svg>
