<svg id="Layer_1" enable-background="new 0 0 1600 1600" height="512" viewBox="0 0 1600 1600" width="512" xmlns="http://www.w3.org/2000/svg"><g><g><g><path d="m1265.3 1565h-930.6c-44.7 0-81-36.3-81-81v-790.6c0-44.7 36.3-81 81-81h930.6c44.7 0 81 36.3 81 81v790.6c0 44.7-36.3 81-81 81zm-930.6-910.6c-21.5 0-39 17.5-39 39v790.6c0 21.5 17.5 39 39 39h930.6c21.5 0 39-17.5 39-39v-790.6c0-21.5-17.5-39-39-39z"/></g><g><path d="m1197.2 654.4c-11.6 0-21-9.4-21-21v-180.4c0-50.7-10-100-29.6-146.4-18.9-44.8-46-85-80.5-119.5s-74.7-61.6-119.5-80.5c-46.4-19.6-95.6-29.6-146.3-29.6s-100 10-146.4 29.6c-44.8 18.9-85 46-119.5 80.5s-61.6 74.7-80.5 119.5c-19.6 46.4-29.6 95.7-29.6 146.4v180.5c0 11.6-9.4 21-21 21s-21-9.4-21-21v-180.5c0-56.4 11.1-111.1 32.9-162.7 21.1-49.8 51.2-94.5 89.5-132.8s83-68.5 132.8-89.5c51.6-21.8 106.4-32.9 162.7-32.9 56.4 0 111.1 11.1 162.7 32.9 49.8 21.1 94.5 51.2 132.8 89.5s68.5 83 89.5 132.8c21.8 51.6 32.9 106.4 32.9 162.7v180.5c.1 11.5-9.3 20.9-20.9 20.9z"/></g><g><path d="m1080.4 654.4c-11.6 0-21-9.4-21-21v-180.4c0-142.9-116.3-259.1-259.1-259.1-142.9 0-259.1 116.3-259.1 259.1v180.5c0 11.6-9.4 21-21 21s-21-9.4-21-21v-180.5c0-80.4 31.3-156.1 88.2-212.9 56.9-56.9 132.5-88.2 212.9-88.2s156.1 31.3 212.9 88.2c56.9 56.9 88.2 132.5 88.2 212.9v180.5c0 11.5-9.4 20.9-21 20.9z"/></g><g><g><g><path d="m856.2 1114.5c-7.4 0-14.6-3.9-18.4-10.9-5.6-10.2-1.9-22.9 8.3-28.5 30-16.5 48.9-48 49.4-82.1.7-52.1-40.9-95.4-92.9-96.6-25.9-.6-50.4 9-68.9 27.1s-28.7 42.3-28.7 68.2c0 34.8 18.9 66.8 49.4 83.5 10.2 5.6 13.9 18.4 8.3 28.5-5.6 10.2-18.4 13.9-28.5 8.3-43.9-24.1-71.2-70.2-71.2-120.3 0-37.3 14.7-72.2 41.4-98.2s61.9-39.9 99.2-39c74.9 1.8 135 64.2 133.9 139.2-.7 49.2-28 94.6-71.2 118.3-3.2 1.6-6.6 2.5-10.1 2.5z"/></g></g><g><path d="m800.3 1323.2c-42.4 0-76.9-34.5-76.9-76.9v-152.8c0-11.6 9.4-21 21-21s21 9.4 21 21v152.8c0 19.3 15.7 34.9 34.9 34.9s34.9-15.7 34.9-34.9v-152.8c0-11.6 9.4-21 21-21s21 9.4 21 21v152.8c0 42.4-34.5 76.9-76.9 76.9z"/></g></g></g></g></svg>