<svg id="Layer_1" enable-background="new 0 0 510 510" height="512" viewBox="0 0 510 510" width="512" xmlns="http://www.w3.org/2000/svg"><path d="m435 369.616v-60h30v-30h-135c-45.72-.447-75.177 50.942-51.928 90h-113.072v-60h-30v-47.889l-34.463-86.157 69.305-25.204 5.004 13.816c8.446 23.33 34.294 35.441 57.631 26.998l112.83-40.85c23.383-8.466 35.466-34.24 26.999-57.628l-15.312-42.318-267.604 97.318-15.463-38.657-27.854 11.143 15.109 37.773-35.781 13.013 10.254 28.193 36.675-13.337 32.67 81.674v42.111h-30v60h-75v90h510v-90c-34.934.001-42.601.001-75 .001zm-95.992-280.769 5.088 14.065c2.822 7.791-1.201 16.386-9.002 19.209l-112.829 40.85c-7.78 2.816-16.395-1.225-19.211-9.003l-5.018-13.855zm-39.008 250.769c0-16.542 13.458-30 30-30h75v60h-75c-16.542 0-30-13.458-30-30zm-195 0h30v30h-30zm375 90h-450v-30h450z"/></svg>