<?xml version="1.0" encoding="iso-8859-1"?>
<!-- Generator: Adobe Illustrator 19.0.0, SVG Export Plug-In . SVG Version: 6.00 Build 0)  -->
<svg version="1.1" id="Capa_1" xmlns="http://www.w3.org/2000/svg" xmlns:xlink="http://www.w3.org/1999/xlink" x="0px" y="0px"
	 viewBox="0 0 511.999 511.999" style="enable-background:new 0 0 511.999 511.999;" xml:space="preserve">
<g>
	<g>
		<path d="M485.25,274.517l-105.604-17.604l-40.104-60.156c-3.313-4.917-9.938-6.229-14.792-2.958
			c-4.896,3.271-6.229,9.885-2.958,14.792l31.611,47.417H115.928l23.676-35.521c3.354-5.042,8.729-8.417,14.729-9.271L289.5,191.902
			c5.833-0.833,9.896-6.24,9.063-12.073c-0.854-5.833-6.354-9.854-12.063-9.052L151.333,190.09
			c-12.021,1.708-22.75,8.479-29.479,18.573l-32.445,48.669L24.25,273.621C9.979,277.184,0,289.954,0,304.663v53.594
			c0,12.573,4.896,24.396,13.792,33.292c8.771,8.76,20.896,13.792,33.292,13.792h28.661c4.956,24.314,26.492,42.667,52.255,42.667
			s47.299-18.353,52.255-42.667h140.823c4.956,24.314,26.492,42.667,52.255,42.667s47.299-18.353,52.255-42.667h47.807
			c8.146,0,15.458-4.51,19.104-11.792l17.25-34.521c0.375-0.75,0.667-1.542,0.854-2.354l1.125-4.771
			c0.188-0.792,0.271-1.604,0.271-2.417v-43.407C512,290.361,500.75,277.09,485.25,274.517z M128,426.673c-17.646,0-32-14.354-32-32
			s14.354-32,32-32s32,14.354,32,32S145.646,426.673,128,426.673z M373.333,426.673c-17.646,0-32-14.354-32-32s14.354-32,32-32
			s32,14.354,32,32S390.979,426.673,373.333,426.673z M490.667,348.246l-17.271,35.76h-47.807
			c-4.956-24.314-26.492-42.667-52.255-42.667s-47.299,18.353-52.255,42.667H180.255c-4.956-24.314-26.492-42.667-52.255-42.667
			s-47.299,18.353-52.255,42.667H47.083c-6.771,0-13.417-2.75-18.208-7.542c-4.854-4.865-7.542-11.333-7.542-18.208v-53.594
			c0-4.906,3.333-9.156,8.083-10.354l67.896-16.969h275.146l109.292,18.22c5.167,0.854,8.917,5.281,8.917,10.521V348.246z"/>
	</g>
</g>
<g>
	<g>
		<path d="M362.355,114.757L351.688,72.09c-1.417-5.719-7.313-9.24-12.938-7.76c-5.729,1.427-9.188,7.219-7.771,12.927l2.362,9.445
			C315.954,75.227,290.216,64.007,256,64.007s-59.954,11.22-77.341,22.695l2.362-9.445c1.417-5.708-2.042-11.5-7.771-12.927
			c-5.813-1.458-11.521,2.042-12.938,7.76l-10.667,42.667c-0.792,3.188-0.083,6.563,1.938,9.146
			c2.021,2.593,5.125,4.104,8.417,4.104h42.667c5.896,0,10.667-4.771,10.667-10.667s-4.771-10.667-10.667-10.667h-15.26
			C201.853,96.397,224.444,85.34,256,85.34c31.564,0,54.158,11.061,68.596,21.333h-15.263c-5.896,0-10.667,4.771-10.667,10.667
			s4.771,10.667,10.667,10.667H352c3.292,0,6.396-1.51,8.417-4.104C362.438,121.32,363.146,117.945,362.355,114.757z"/>
	</g>
</g>
<g>
</g>
<g>
</g>
<g>
</g>
<g>
</g>
<g>
</g>
<g>
</g>
<g>
</g>
<g>
</g>
<g>
</g>
<g>
</g>
<g>
</g>
<g>
</g>
<g>
</g>
<g>
</g>
<g>
</g>
</svg>
