<svg xmlns="http://www.w3.org/2000/svg" xmlns:xlink="http://www.w3.org/1999/xlink" version="1.1" viewBox="0 0 368.554 368.554" enable-background="new 0 0 368.554 368.554">
    <path d="m367.291,365.218c0.072-0.107 0.134-0.218 0.199-0.327 0.06-0.1 0.123-0.198 0.178-0.301 0.061-0.114 0.113-0.231 0.167-0.347 0.05-0.105 0.102-0.209 0.147-0.317 0.047-0.114 0.085-0.23 0.127-0.346 0.041-0.115 0.086-0.229 0.121-0.347 0.035-0.116 0.061-0.234 0.09-0.351 0.03-0.12 0.064-0.239 0.088-0.361 0.027-0.136 0.043-0.273 0.063-0.41 0.015-0.105 0.035-0.209 0.046-0.315 0.024-0.247 0.037-0.495 0.037-0.744v-353.549c0-0.248-0.013-0.496-0.037-0.744-0.01-0.106-0.031-0.21-0.045-0.315-0.019-0.137-0.036-0.275-0.063-0.411-0.024-0.122-0.058-0.24-0.088-0.36-0.029-0.117-0.055-0.235-0.09-0.351-0.036-0.118-0.08-0.231-0.121-0.347-0.041-0.116-0.08-0.232-0.127-0.346-0.045-0.108-0.098-0.212-0.147-0.317-0.055-0.116-0.106-0.233-0.167-0.347-0.055-0.103-0.118-0.2-0.177-0.3-0.066-0.11-0.128-0.222-0.2-0.329-0.075-0.112-0.158-0.217-0.239-0.324-0.066-0.088-0.127-0.179-0.198-0.264-0.314-0.383-0.665-0.734-1.048-1.047-0.083-0.069-0.172-0.128-0.257-0.192-0.11-0.083-0.218-0.168-0.332-0.244-0.104-0.069-0.211-0.129-0.317-0.193-0.104-0.062-0.206-0.127-0.313-0.185-0.108-0.058-0.219-0.107-0.329-0.159-0.112-0.053-0.221-0.108-0.336-0.156-0.107-0.044-0.216-0.08-0.324-0.119-0.122-0.044-0.243-0.091-0.369-0.129-0.107-0.032-0.216-0.056-0.325-0.083-0.129-0.033-0.256-0.069-0.387-0.095-0.122-0.024-0.245-0.038-0.367-0.056-0.12-0.018-0.237-0.04-0.359-0.052-0.216-0.021-0.432-0.03-0.648-0.033-0.03,0-0.059-0.005-0.089-0.005h-353.555c-0.03,7.24247e-16-0.059,0.004-0.089,0.005-0.216,0.002-0.433,0.011-0.648,0.032-0.122,0.012-0.24,0.034-0.359,0.052-0.123,0.018-0.246,0.032-0.367,0.056-0.132,0.026-0.259,0.062-0.388,0.095-0.108,0.027-0.217,0.051-0.324,0.083-0.125,0.038-0.247,0.085-0.369,0.129-0.108,0.039-0.217,0.075-0.324,0.119-0.115,0.047-0.225,0.103-0.336,0.156-0.11,0.052-0.221,0.101-0.329,0.159-0.108,0.057-0.21,0.122-0.314,0.185-0.106,0.063-0.213,0.123-0.316,0.192-0.115,0.077-0.224,0.162-0.334,0.245-0.085,0.064-0.173,0.123-0.256,0.191-0.383,0.314-0.733,0.665-1.047,1.048-0.07,0.086-0.132,0.176-0.198,0.264-0.081,0.108-0.164,0.213-0.239,0.325-0.072,0.107-0.134,0.219-0.2,0.329-0.06,0.1-0.122,0.197-0.177,0.3-0.06,0.113-0.112,0.229-0.166,0.345-0.05,0.106-0.103,0.21-0.148,0.319-0.047,0.113-0.085,0.229-0.126,0.344-0.042,0.116-0.086,0.23-0.122,0.349-0.035,0.116-0.061,0.234-0.09,0.351-0.03,0.12-0.064,0.238-0.088,0.36-0.027,0.136-0.044,0.274-0.063,0.411-0.015,0.105-0.035,0.208-0.046,0.315-0.024,0.247-0.037,0.495-0.037,0.744v353.549c0,0.248 0.013,0.496 0.037,0.744 0.01,0.107 0.031,0.21 0.046,0.315 0.019,0.137 0.036,0.274 0.063,0.41 0.024,0.122 0.058,0.241 0.088,0.361 0.029,0.117 0.055,0.235 0.09,0.351 0.036,0.119 0.08,0.233 0.122,0.349 0.041,0.115 0.079,0.23 0.126,0.344 0.045,0.109 0.098,0.213 0.148,0.319 0.054,0.116 0.106,0.232 0.166,0.346 0.055,0.103 0.118,0.201 0.178,0.301 0.065,0.11 0.127,0.221 0.199,0.327 0.075,0.112 0.159,0.218 0.24,0.326 0.066,0.088 0.127,0.178 0.197,0.263 0.314,0.383 0.665,0.734 1.048,1.047 0.083,0.068 0.171,0.127 0.256,0.191 0.11,0.083 0.219,0.168 0.334,0.245 0.104,0.069 0.211,0.129 0.318,0.193 0.104,0.062 0.205,0.127 0.312,0.184 0.11,0.059 0.223,0.108 0.335,0.161 0.109,0.052 0.217,0.106 0.329,0.153 0.11,0.046 0.223,0.082 0.335,0.122 0.119,0.043 0.236,0.088 0.358,0.125 0.112,0.034 0.227,0.059 0.34,0.087 0.124,0.031 0.246,0.066 0.372,0.091 0.131,0.026 0.263,0.041 0.394,0.06 0.111,0.016 0.219,0.037 0.331,0.048 0.246,0.024 0.493,0.037 0.74,0.037h353.554c0.247,0 0.494-0.013 0.74-0.037 0.112-0.011 0.22-0.032 0.331-0.048 0.132-0.019 0.264-0.034 0.395-0.06 0.126-0.025 0.248-0.059 0.371-0.091 0.114-0.029 0.228-0.054 0.341-0.088 0.122-0.037 0.239-0.082 0.358-0.125 0.112-0.04 0.224-0.077 0.335-0.122 0.112-0.047 0.22-0.101 0.329-0.153 0.112-0.053 0.225-0.103 0.335-0.161 0.106-0.057 0.207-0.122 0.31-0.183 0.107-0.064 0.215-0.124 0.319-0.194 0.114-0.077 0.222-0.162 0.332-0.244 0.086-0.064 0.174-0.124 0.257-0.192 0.383-0.314 0.734-0.665 1.048-1.047 0.07-0.085 0.131-0.175 0.197-0.263 0.078-0.108 0.161-0.214 0.237-0.326zm-193.621-180.941l-92.614,92.614c-22.076-24.58-35.529-57.054-35.529-92.614s13.453-68.035 35.529-92.614l92.614,92.614zm-82.008-103.221c24.58-22.076 57.054-35.529 92.614-35.529s68.035,13.453 92.614,35.529l-92.614,92.614-92.614-92.614zm92.615,113.827l92.614,92.614c-24.58,22.076-57.054,35.529-92.614,35.529s-68.035-13.453-92.614-35.529l92.614-92.614zm10.606-10.606l92.614-92.614c22.076,24.58 35.529,57.054 35.529,92.614s-13.453,68.035-35.529,92.614l-92.614-92.614zm92.628-113.841c-27.308-24.786-63.538-39.909-103.234-39.909s-75.927,15.123-103.234,39.909l-55.437-55.436h317.341l-55.436,55.436zm-217.075,10.607c-24.786,27.307-39.909,63.537-39.909,103.234s15.123,75.927 39.909,103.234l-55.436,55.436v-317.341l55.436,55.437zm10.607,217.075c27.308,24.786 63.538,39.909 103.234,39.909s75.927-15.123 103.234-39.909l55.436,55.436h-317.341l55.437-55.436zm217.075-10.607c24.786-27.308 39.909-63.538 39.909-103.234s-15.123-75.927-39.909-103.234l55.436-55.436v317.341l-55.436-55.437z"/>
</svg>
